<svg width="50" height="50" viewBox="0 0 50 50" fill="none" xmlns="http://www.w3.org/2000/svg">
<path d="M25 42.3999C18.9583 42.3999 13.6175 39.3066 10.5 34.6666C10.5725 29.8333 20.1666 27.1749 25 27.1749C29.8333 27.1749 39.4275 29.8333 39.5 34.6666C36.3825 39.3066 31.0416 42.3999 25 42.3999ZM25 8.08325C26.9228 8.08325 28.7669 8.84709 30.1265 10.2067C31.4861 11.5664 32.25 13.4104 32.25 15.3333C32.25 17.2561 31.4861 19.1001 30.1265 20.4598C28.7669 21.8194 26.9228 22.5833 25 22.5833C23.0772 22.5833 21.2331 21.8194 19.8735 20.4598C18.5138 19.1001 17.75 17.2561 17.75 15.3333C17.75 13.4104 18.5138 11.5664 19.8735 10.2067C21.2331 8.84709 23.0772 8.08325 25 8.08325ZM25 0.833252C21.8264 0.833252 18.6838 1.45834 15.7518 2.67283C12.8198 3.88732 10.1556 5.66742 7.91157 7.9115C3.37944 12.4436 0.833313 18.5905 0.833313 24.9999C0.833313 31.4093 3.37944 37.5562 7.91157 42.0883C10.1556 44.3324 12.8198 46.1125 15.7518 47.327C18.6838 48.5415 21.8264 49.1666 25 49.1666C31.4094 49.1666 37.5563 46.6205 42.0884 42.0883C46.6205 37.5562 49.1666 31.4093 49.1666 24.9999C49.1666 11.6358 38.2916 0.833252 25 0.833252Z" fill="white"/>
</svg>
