<svg width="55" height="55" viewBox="0 0 55 55" fill="none" xmlns="http://www.w3.org/2000/svg">
<path d="M22.0833 39.6876V15.3126L38.3333 27.5001M27.5 0.416748C23.9433 0.416748 20.4215 1.11728 17.1356 2.47834C13.8497 3.83941 10.8641 5.83435 8.34915 8.34927C3.27004 13.4284 0.416626 20.3171 0.416626 27.5001C0.416626 34.683 3.27004 41.5718 8.34915 46.6509C10.8641 49.1658 13.8497 51.1608 17.1356 52.5218C20.4215 53.8829 23.9433 54.5834 27.5 54.5834C34.6829 54.5834 41.5717 51.73 46.6508 46.6509C51.7299 41.5718 54.5833 34.683 54.5833 27.5001C54.5833 23.9434 53.8828 20.4216 52.5217 17.1357C51.1606 13.8498 49.1657 10.8642 46.6508 8.34927C44.1358 5.83435 41.1502 3.83941 37.8643 2.47834C34.5784 1.11728 31.0566 0.416748 27.5 0.416748Z" fill="white"/>
</svg>
